<svg width="47" height="42" viewBox="0 0 47 42" fill="none" xmlns="http://www.w3.org/2000/svg">
<g clip-path="url(#clip0_2255_3293)">
<path d="M42.4436 32.4683C41.1846 31.4654 40.0824 30.3156 39.1667 29.05C38.1669 27.303 37.5677 25.3951 37.4042 23.4383V17.675C37.4128 14.6015 36.1652 11.6311 33.8958 9.32163C31.6264 7.01221 28.4913 5.52284 25.0797 5.13333V3.62833C25.0797 3.21526 24.8961 2.8191 24.5692 2.52701C24.2424 2.23492 23.799 2.07083 23.3368 2.07083C22.8745 2.07083 22.4312 2.23492 22.1044 2.52701C21.7775 2.8191 21.5939 3.21526 21.5939 3.62833V5.15666C18.2128 5.57425 15.1157 7.07263 12.8761 9.37429C10.6365 11.6759 9.40616 14.6249 9.41304 17.675V23.4383C9.24953 25.3951 8.65031 27.303 7.65054 29.05C6.75086 30.3127 5.66635 31.4624 4.42582 32.4683C4.28656 32.5777 4.17495 32.7122 4.09841 32.8631C4.02188 33.014 3.98217 33.1777 3.98193 33.3433V34.93C3.98193 35.2394 4.11948 35.5362 4.36432 35.755C4.60916 35.9737 4.94123 36.0967 5.28749 36.0967H41.5819C41.9282 36.0967 42.2603 35.9737 42.5051 35.755C42.7499 35.5362 42.8875 35.2394 42.8875 34.93V33.3433C42.8872 33.1777 42.8475 33.014 42.771 32.8631C42.6945 32.7122 42.5829 32.5777 42.4436 32.4683ZM6.69749 33.7633C7.91219 32.7147 8.98169 31.5397 9.88304 30.2633C11.1424 28.1534 11.8772 25.8254 12.0372 23.4383V17.675C11.9854 16.3077 12.2421 14.9451 12.7919 13.6683C13.3417 12.3915 14.1734 11.2266 15.2374 10.243C16.3015 9.25939 17.5762 8.47719 18.9856 7.94298C20.395 7.40877 21.9103 7.13347 23.4412 7.13347C24.9722 7.13347 26.4875 7.40877 27.8969 7.94298C29.3063 8.47719 30.581 9.25939 31.645 10.243C32.7091 11.2266 33.5408 12.3915 34.0906 13.6683C34.6404 14.9451 34.897 16.3077 34.8453 17.675V23.4383C35.0053 25.8254 35.7401 28.1534 36.9994 30.2633C37.9008 31.5397 38.9703 32.7147 40.185 33.7633H6.69749Z" fill="black"/>
<path d="M23.4999 39.9933C24.3223 39.9764 25.1115 39.7001 25.7279 39.2133C26.3444 38.7265 26.7483 38.0606 26.8682 37.3333H20.001C20.1243 38.0804 20.5471 38.7619 21.1907 39.2512C21.8343 39.7405 22.6549 40.0043 23.4999 39.9933Z" fill="black"/>
</g>
<defs>
<clipPath id="clip0_2255_3293">
<rect width="47" height="42" fill="white"/>
</clipPath>
</defs>
</svg>
