<svg width="47" height="42" viewBox="0 0 47 42" fill="none" xmlns="http://www.w3.org/2000/svg">
<path d="M23.5002 29.75C22.4614 29.75 21.4652 29.3813 20.7307 28.7249C19.9961 28.0685 19.5835 27.1783 19.5835 26.25C19.5835 24.3075 21.3264 22.75 23.5002 22.75C24.5389 22.75 25.5351 23.1187 26.2697 23.7751C27.0042 24.4315 27.4168 25.3217 27.4168 26.25C27.4168 27.1783 27.0042 28.0685 26.2697 28.7249C25.5351 29.3813 24.5389 29.75 23.5002 29.75ZM35.2502 35V17.5H11.7502V35H35.2502ZM35.2502 14C36.2889 14 37.2851 14.3687 38.0197 15.0251C38.7542 15.6815 39.1668 16.5717 39.1668 17.5V35C39.1668 35.9283 38.7542 36.8185 38.0197 37.4749C37.2851 38.1312 36.2889 38.5 35.2502 38.5H11.7502C10.7114 38.5 9.71518 38.1312 8.98066 37.4749C8.24614 36.8185 7.8335 35.9283 7.8335 35V17.5C7.8335 15.5575 9.57641 14 11.7502 14H13.7085V10.5C13.7085 8.17936 14.7401 5.95376 16.5764 4.31282C18.4127 2.67187 20.9033 1.75 23.5002 1.75C24.786 1.75 26.0593 1.97633 27.2473 2.41605C28.4353 2.85578 29.5147 3.5003 30.4239 4.31282C31.3332 5.12533 32.0544 6.08992 32.5465 7.15152C33.0386 8.21312 33.2918 9.35093 33.2918 10.5V14H35.2502ZM23.5002 5.25C21.942 5.25 20.4477 5.80312 19.3459 6.78769C18.2441 7.77226 17.6252 9.10761 17.6252 10.5V14H29.3752V10.5C29.3752 9.10761 28.7562 7.77226 27.6544 6.78769C26.5526 5.80312 25.0583 5.25 23.5002 5.25Z" fill="black"/>
</svg>
